<?xml version="1.0" standalone="no"?>
<!DOCTYPE svg PUBLIC "-//W3C//DTD SVG 20010904//EN"
 "http://www.w3.org/TR/2001/REC-SVG-20010904/DTD/svg10.dtd">
<svg version="1.0" xmlns="http://www.w3.org/2000/svg"
 width="500.000000pt" height="500.000000pt" viewBox="0 0 500.000000 500.000000"
 preserveAspectRatio="xMidYMid meet">
<metadata>
Created by potrace 1.11, written by Peter Selinger 2001-2013
</metadata>
<g transform="translate(0.000000,500.000000) scale(0.100000,-0.100000)"
fill="#000000" stroke="none">
<path d="M771 4584 c-30 -8 -77 -27 -105 -42 -65 -34 -174 -142 -208 -208 -61
-114 -58 -12 -58 -1834 0 -1822 -3 -1720 58 -1834 34 -65 143 -174 208 -208
114 -61 12 -58 1834 -58 1822 0 1720 -3 1834 58 65 34 174 143 208 208 61 114
58 12 58 1834 0 1822 3 1720 -58 1834 -34 65 -143 174 -208 208 -114 61 -11
58 -1839 57 -1426 0 -1678 -2 -1724 -15z m1804 -509 c276 -48 511 -174 631
-337 94 -128 151 -291 173 -496 7 -66 11 -378 11 -865 1 -803 4 -876 47 -949
36 -61 64 -73 172 -73 94 0 99 1 177 42 73 38 81 40 105 27 32 -16 63 -77 55
-108 -8 -34 -163 -177 -242 -224 -120 -72 -168 -83 -339 -85 -163 -1 -212 10
-313 69 -65 38 -163 141 -207 215 -20 35 -38 65 -40 67 -2 2 -50 -32 -106 -75
-57 -43 -154 -104 -215 -135 -210 -108 -360 -141 -639 -142 -208 -1 -304 17
-435 81 -105 51 -223 169 -273 273 -61 124 -80 213 -81 380 -1 168 14 238 74
365 64 133 182 259 322 342 161 98 428 100 768 7 131 -36 195 -43 265 -32 155
24 258 138 286 318 16 106 6 526 -16 644 -47 255 -154 400 -346 467 -54 19
-84 23 -199 23 -197 0 -335 -43 -435 -135 -69 -64 -89 -109 -90 -200 0 -68 4
-82 37 -145 20 -39 40 -87 43 -108 17 -89 -54 -200 -163 -253 -50 -25 -68 -28
-152 -28 -112 0 -157 14 -212 63 -67 60 -91 121 -96 238 -4 91 -1 109 25 185
36 104 86 183 173 270 164 167 451 292 750 329 104 12 377 4 485 -15z"/>
</g>
</svg>
